<svg preserveAspectRatio="none" width="100%" height="100%" overflow="visible" style="display: block;" viewBox="0 0 19.3333 19.3333" fill="none" xmlns="http://www.w3.org/2000/svg">
<g id="lucide/bell">
<path id="Vector" d="M6.84485 14.0007C6.96188 14.2033 7.13019 14.3716 7.33288 14.4886C7.53556 14.6057 7.76548 14.6673 7.99951 14.6673C8.23355 14.6673 8.46347 14.6057 8.66615 14.4886C8.86884 14.3716 9.03715 14.2033 9.15418 14.0007M2.17418 10.218C2.08709 10.3134 2.02962 10.4321 2.00875 10.5597C1.98788 10.6872 2.00453 10.818 2.05665 10.9363C2.10878 11.0545 2.19414 11.155 2.30235 11.2256C2.41056 11.2962 2.53697 11.3339 2.66618 11.334H13.3328C13.462 11.334 13.5885 11.2965 13.6968 11.2261C13.805 11.1556 13.8905 11.0552 13.9428 10.937C13.995 10.8188 14.0118 10.688 13.9911 10.5605C13.9704 10.433 13.9131 10.3142 13.8262 10.2187C12.9395 9.30465 11.9995 8.33332 11.9995 5.33398C11.9995 4.27312 11.5781 3.2557 10.8279 2.50556C10.0778 1.75541 9.06038 1.33398 7.99951 1.33398C6.93865 1.33398 5.92123 1.75541 5.17109 2.50556C4.42094 3.2557 3.99951 4.27312 3.99951 5.33398C3.99951 8.33332 3.05885 9.30465 2.17418 10.218Z" stroke="var(--stroke-0, black)" stroke-width="0.933333" stroke-linecap="round" stroke-linejoin="round"/>
</g>
</svg>
