<svg width="34" height="35" viewBox="0 0 34 35" fill="none" xmlns="http://www.w3.org/2000/svg">
<path d="M0 0V33.6254H2.62028C2.44021 23.7851 4.84203 15.4635 10.1422 15.0385C15.1285 14.6386 21.1265 23.7653 21.1265 23.7653C20.3916 22.6054 19.9255 21.0669 19.4807 19.7614C18.955 18.2228 18.5274 16.6393 18.2639 15.0226C17.7753 12.0356 17.7991 8.66984 19.4555 6.0681C20.2645 4.79569 21.48 3.78279 22.7881 3.14196C23.6845 2.7037 24.7014 2.48391 25.6692 2.69708C26.5087 2.88112 27.266 3.38161 27.8764 4.0198C30.5973 6.86649 30.9482 12.0435 30.9482 15.8488V33.6241H33.6268V0H0Z" fill="#1A1A1A"/>
<path d="M33.6254 31.9041H0V34.0225H33.6254V31.9041Z" fill="#1A1A1A"/>
</svg>
