<svg width="158.132" height="160" viewBox="0 0 158.132 160" fill="none" xmlns="http://www.w3.org/2000/svg">
<clipPath id="rounded-corners">
<rect width="158.132" height="160" rx="28" ry="28"/>
</clipPath>
<g clip-path="url(#rounded-corners)">
<path d="M0 0V158.132H12.3226C11.4757 111.856 22.7709 72.7212 47.6962 70.7224C71.1458 68.842 99.3526 111.762 99.3526 111.762C95.8968 106.308 93.705 99.0724 91.6129 92.9329C89.1409 85.6975 87.1297 78.2504 85.8905 70.6477C83.5929 56.6003 83.705 40.7722 91.4945 28.5368C95.299 22.553 101.015 17.7896 107.167 14.7759C111.382 12.7148 116.165 11.6812 120.716 12.6837C124.664 13.5492 128.226 15.9029 131.096 18.9041C143.892 32.2915 145.542 56.6377 145.542 74.5331V158.126H158.138V0H0Z" fill="black"/>
<path d="M158.132 150.037H0V160H158.132V150.037Z" fill="black"/>
</g>
</svg>
