<svg width="565" height="160" viewBox="0 0 565 160" fill="none" xmlns="http://www.w3.org/2000/svg">
<path d="M0 0V158.132H12.3226C11.4757 111.856 22.7709 72.7212 47.6962 70.7224C71.1458 68.842 99.3526 111.762 99.3526 111.762C95.8968 106.308 93.705 99.0724 91.6129 92.9329C89.1409 85.6975 87.1297 78.2504 85.8905 70.6477C83.5929 56.6003 83.705 40.7722 91.4945 28.5368C95.299 22.553 101.015 17.7896 107.167 14.7759C111.382 12.7148 116.165 11.6812 120.716 12.6837C124.664 13.5492 128.226 15.9029 131.096 18.9041C143.892 32.2915 145.542 56.6377 145.542 74.5331V158.126H158.138V0H0Z" fill="black"/>
<path d="M158.132 150.037H0V160H158.132V150.037Z" fill="black"/>
<g clip-path="url(#clip0_3750_5709)">
<path d="M249.562 100.488C247.184 102.935 244.42 104.868 241.286 106.288C238.147 107.707 234.794 108.417 231.222 108.417C227.65 108.417 224.297 107.724 221.158 106.334C218.018 104.943 215.289 103.062 212.98 100.684C210.666 98.3064 208.831 95.5133 207.481 92.3047C206.125 89.1019 205.449 85.6798 205.449 82.0442C205.449 78.4086 206.125 75.0038 207.481 71.8298C208.837 68.6558 210.666 65.8801 212.98 63.5025C215.295 61.1249 218.018 59.2378 221.158 57.8528C224.297 56.462 227.65 55.7695 231.222 55.7695C234.794 55.7695 238.147 56.4793 241.286 57.899C244.426 59.3186 247.184 61.2518 249.562 63.6987L242.521 70.7391C241.131 69.1521 239.463 67.9114 237.512 67.0227C235.562 66.1282 233.461 65.6838 231.216 65.6838C228.971 65.6838 226.986 66.1167 225.07 66.9707C223.154 67.8306 221.487 69.0021 220.061 70.491C218.642 71.9798 217.516 73.7111 216.691 75.6963C215.866 77.6814 215.45 79.7936 215.45 82.0442C215.45 84.2948 215.86 86.505 216.691 88.4902C217.516 90.4754 218.642 92.2066 220.061 93.6955C221.481 95.1844 223.149 96.3559 225.07 97.2157C226.986 98.0756 229.035 98.5026 231.216 98.5026C233.398 98.5026 235.562 98.0583 237.512 97.1638C239.463 96.2693 241.131 95.0344 242.521 93.4474L249.562 100.488Z" fill="black"/>
<path d="M255.113 33.4707H265.126V107.234H255.113V33.4707Z" fill="black"/>
<path d="M280.395 37.0371C282.248 37.0371 283.846 37.7181 285.203 39.0684C286.559 40.4246 287.234 42.0289 287.234 43.8756C287.234 45.7222 286.553 47.4131 285.203 48.7346C283.846 50.0561 282.242 50.7198 280.395 50.7198C278.41 50.7198 276.76 50.0619 275.438 48.7346C274.117 47.4131 273.453 45.7915 273.453 43.8756C273.453 41.9596 274.111 40.4246 275.438 39.0684C276.76 37.7123 278.41 37.0371 280.395 37.0371ZM275.34 57.1658H285.353V107.234H275.34V57.1658Z" fill="black"/>
<path d="M323.123 55.7754C326.626 55.7754 329.95 56.4679 333.089 57.8587C336.228 59.2494 338.952 61.1307 341.266 63.5083C343.58 65.8859 345.416 68.679 346.766 71.8876C348.122 75.0962 348.797 78.5125 348.797 82.1481C348.797 85.7838 348.116 89.1886 346.766 92.3625C345.41 95.5365 343.575 98.3123 341.266 100.69C338.952 103.067 336.223 104.955 333.089 106.34C329.95 107.73 326.626 108.423 323.123 108.423C319.62 108.423 316.382 107.759 313.405 106.438C310.433 105.116 307.853 103.333 305.672 101.082V130.825H295.659V56.97H305.672V63.1159C307.853 60.871 310.433 59.0879 313.405 57.7606C316.377 56.439 319.614 55.7754 323.123 55.7754ZM323.123 98.5027C325.235 98.5027 327.255 98.0757 329.171 97.2158C331.087 96.356 332.754 95.1845 334.18 93.6956C335.599 92.2067 336.725 90.4755 337.55 88.4903C338.375 86.5051 338.791 84.393 338.791 82.1424C338.791 79.8917 338.375 77.6988 337.55 75.7483C336.725 73.7977 335.617 72.0665 334.226 70.543C332.835 69.0252 331.185 67.8365 329.269 66.9766C327.353 66.1167 325.304 65.6897 323.123 65.6897C320.941 65.6897 318.875 66.1225 316.925 66.9766C314.974 67.8365 313.289 69.0079 311.87 70.4968C310.45 71.9857 309.325 73.7169 308.499 75.7021C307.674 77.6873 307.259 79.834 307.259 82.1481C307.259 84.4623 307.668 86.5109 308.499 88.4961C309.325 90.4812 310.45 92.2125 311.87 93.7014C313.289 95.1903 314.974 96.3617 316.925 97.2216C318.875 98.0815 320.941 98.5085 323.123 98.5085V98.5027Z" fill="black"/>
<path d="M423.057 57.166H433.663L416.212 107.234H403.92L391.034 71.6393L378.148 107.234H365.654L348.307 57.166H358.815L372.002 94.942L385.586 57.166H396.395L410.078 94.942L423.062 57.166H423.057Z" fill="black"/>
<path d="M444.374 37.0371C446.226 37.0371 447.825 37.7181 449.181 39.0684C450.537 40.4246 451.212 42.0289 451.212 43.8756C451.212 45.7222 450.531 47.4131 449.181 48.7346C447.825 50.0561 446.221 50.7198 444.374 50.7198C442.389 50.7198 440.738 50.0619 439.417 48.7346C438.095 47.4131 437.432 45.7915 437.432 43.8756C437.432 41.9596 438.09 40.4246 439.417 39.0684C440.738 37.7123 442.389 37.0371 444.374 37.0371ZM439.319 57.1658H449.331V107.234H439.319V57.1658Z" fill="black"/>
<path d="M485.018 55.7754C488.192 55.7754 491.129 56.3236 493.842 57.4085C496.554 58.4992 498.897 59.9881 500.882 61.8694C502.867 63.7507 504.437 65.984 505.591 68.5636C506.745 71.1431 507.328 73.9535 507.328 76.989V107.228H497.316V80.6593C497.316 78.2124 496.987 76.0657 496.323 74.2132C495.66 72.3608 494.719 70.8084 493.495 69.5562C492.272 68.3039 490.818 67.3402 489.133 66.6823C487.448 66.0244 485.676 65.6897 483.829 65.6897C481.382 65.6897 479.27 66.0879 477.481 66.8785C475.698 67.6749 474.192 68.7771 472.969 70.2025C471.745 71.6221 470.822 73.2899 470.193 75.2116C469.564 77.1275 469.252 79.2743 469.252 81.6576V107.234H459.24V57.0681H469.252V63.1159C470.112 61.8636 471.151 60.7845 472.374 59.8958C473.598 59.0013 474.902 58.2453 476.293 57.6163C477.683 56.9873 479.12 56.5256 480.603 56.2255C482.092 55.9254 483.558 55.7812 485.012 55.7812L485.018 55.7754Z" fill="black"/>
<path d="M554.418 57.0681H564.333V104.955C564.333 105.682 564.281 106.888 564.183 108.573C564.084 110.258 563.75 112.157 563.19 114.275C562.63 116.387 561.753 118.585 560.564 120.865C559.375 123.144 557.673 125.21 555.457 127.063C553.241 128.915 550.465 130.45 547.13 131.674C543.788 132.897 539.68 133.509 534.786 133.509C530.821 133.509 527.134 133.047 523.729 132.118C520.324 131.189 517.202 130 514.357 128.552L517.923 119.232C520.434 120.622 523.129 121.696 526.003 122.452C528.877 123.214 531.802 123.594 534.774 123.594C537.746 123.594 540.539 123.294 542.952 122.7C545.364 122.106 547.412 121.113 549.098 119.728C550.783 118.337 552.087 116.439 553.016 114.026C553.939 111.614 554.407 108.521 554.407 104.758V100.696C552.162 103.143 549.513 105.041 546.478 106.397C543.436 107.753 540.164 108.429 536.661 108.429C533.159 108.429 529.754 107.736 526.649 106.345C523.544 104.955 520.815 103.073 518.472 100.696C516.123 98.3181 514.276 95.5424 512.92 92.3684C511.564 89.1944 510.889 85.7896 510.889 82.154C510.889 78.5184 511.564 75.102 512.92 71.8934C514.276 68.6906 516.123 65.8975 518.472 63.5142C520.815 61.1366 523.544 59.2495 526.649 57.8645C529.754 56.4738 533.095 55.7812 536.661 55.7812C540.228 55.7812 543.436 56.4622 546.478 57.8126C549.519 59.1687 552.162 61.0673 554.407 63.5142V57.0681H554.418ZM536.673 98.5086C538.854 98.5086 540.886 98.0815 542.773 97.2217C544.654 96.3618 546.304 95.1904 547.73 93.7015C549.15 92.2126 550.275 90.4813 551.1 88.4962C551.925 86.511 552.341 84.3989 552.341 82.1482C552.341 79.8976 551.925 77.6874 551.1 75.7022C550.275 73.717 549.15 71.9858 547.73 70.4969C546.31 69.008 544.654 67.8365 542.773 66.9767C540.891 66.1168 538.854 65.6898 536.673 65.6898C534.492 65.6898 532.443 66.1226 530.527 66.9767C528.611 67.8365 526.926 69.008 525.472 70.4969C524.017 71.9858 522.875 73.717 522.05 75.7022C521.224 77.6874 520.809 79.8341 520.809 82.1482C520.809 84.4623 521.219 86.511 522.05 88.4962C522.875 90.4813 524.017 92.2126 525.472 93.7015C526.926 95.1904 528.611 96.3618 530.527 97.2217C532.443 98.0815 534.492 98.5086 536.673 98.5086Z" fill="black"/>
</g>
<defs>
<clipPath id="clip0_3750_5709">
<rect width="358.889" height="100.032" fill="white" transform="translate(205.444 33.4707)"/>
</clipPath>
</defs>
</svg>
