<svg preserveAspectRatio="none" width="100%" height="100%" overflow="visible" style="display: block;" viewBox="0 0 76.3146 21.2709" fill="none" xmlns="http://www.w3.org/2000/svg">
<g id="Layer_1" clip-path="url(#clip0_0_56)">
<path id="Vector" d="M9.38108 14.2511C8.8755 14.7714 8.28771 15.1825 7.62139 15.4844C6.95383 15.7863 6.24088 15.9372 5.48129 15.9372C4.7217 15.9372 4.00875 15.7899 3.3412 15.4942C2.67364 15.1985 2.09321 14.7984 1.60237 14.2929C1.11029 13.7873 0.720068 13.1934 0.432923 12.5111C0.14455 11.83 0.000976562 11.1023 0.000976562 10.3293C0.000976562 9.55618 0.14455 8.83218 0.432923 8.15726C0.721296 7.48235 1.11029 6.8921 1.60237 6.38653C2.09444 5.88095 2.67364 5.47969 3.3412 5.18518C4.00875 4.88944 4.7217 4.74219 5.48129 4.74219C6.24088 4.74219 6.95383 4.89312 7.62139 5.19499C8.28894 5.49687 8.8755 5.90795 9.38108 6.42825L7.88399 7.92534C7.58825 7.58788 7.23362 7.32405 6.81885 7.13507C6.40409 6.94487 5.95741 6.85038 5.48006 6.85038C5.00271 6.85038 4.58059 6.94241 4.17318 7.12403C3.76578 7.30687 3.41114 7.55597 3.10804 7.87257C2.80617 8.18917 2.56688 8.5573 2.3914 8.97943C2.21593 9.40156 2.12757 9.85069 2.12757 10.3293C2.12757 10.8078 2.2147 11.2778 2.3914 11.7C2.56688 12.1221 2.80617 12.4902 3.10804 12.8068C3.40991 13.1234 3.76455 13.3725 4.17318 13.5554C4.58059 13.7382 5.01621 13.829 5.48006 13.829C5.94392 13.829 6.40409 13.7345 6.81885 13.5443C7.23362 13.3541 7.58825 13.0915 7.88399 12.754L9.38108 14.2511Z" fill="var(--fill-0, #1A1A1A)"/>
<path id="Vector_2" d="M10.5615 0H12.6906V15.685H10.5615V0Z" fill="var(--fill-0, #1A1A1A)"/>
<path id="Vector_3" d="M15.9381 0.757812C16.332 0.757812 16.672 0.902613 16.9603 1.18976C17.2487 1.47813 17.3923 1.81927 17.3923 2.21195C17.3923 2.60463 17.2475 2.96417 16.9603 3.24518C16.672 3.52619 16.3308 3.66731 15.9381 3.66731C15.516 3.66731 15.1651 3.52742 14.884 3.24518C14.603 2.96417 14.4619 2.61935 14.4619 2.21195C14.4619 1.80455 14.6018 1.47813 14.884 1.18976C15.1651 0.901385 15.516 0.757812 15.9381 0.757812ZM14.8632 5.038H16.9922V15.6845H14.8632V5.038Z" fill="var(--fill-0, #1A1A1A)"/>
<path id="Vector_4" d="M25.0235 4.74219C25.7683 4.74219 26.4751 4.88944 27.1427 5.18518C27.8102 5.48091 28.3894 5.88095 28.8815 6.38653C29.3736 6.8921 29.7638 7.48603 30.051 8.1683C30.3393 8.85058 30.4829 9.57704 30.4829 10.3501C30.4829 11.1232 30.3381 11.8472 30.051 12.5221C29.7626 13.197 29.3724 13.7873 28.8815 14.2929C28.3894 14.7984 27.809 15.1997 27.1427 15.4942C26.4751 15.7899 25.7683 15.9372 25.0235 15.9372C24.2786 15.9372 23.5902 15.7961 22.957 15.5151C22.325 15.2341 21.7765 14.8549 21.3126 14.3763V20.7009H19.1836V4.9962H21.3126V6.30308C21.7765 5.82573 22.325 5.44655 22.957 5.16432C23.589 4.88331 24.2774 4.74219 25.0235 4.74219ZM25.0235 13.8278C25.4726 13.8278 25.9021 13.737 26.3095 13.5541C26.7169 13.3713 27.0715 13.1222 27.3746 12.8056C27.6765 12.489 27.9158 12.1209 28.0913 11.6987C28.2667 11.2766 28.3551 10.8275 28.3551 10.3489C28.3551 9.87032 28.2667 9.40401 28.0913 8.98925C27.9158 8.57448 27.6802 8.20634 27.3844 7.88239C27.0887 7.55965 26.7377 7.30687 26.3303 7.12403C25.9229 6.94119 25.4873 6.85038 25.0235 6.85038C24.5596 6.85038 24.1203 6.94241 23.7055 7.12403C23.2908 7.30687 22.9324 7.55597 22.6306 7.87257C22.3287 8.18917 22.0894 8.5573 21.9139 8.97943C21.7385 9.40156 21.6501 9.85805 21.6501 10.3501C21.6501 10.8422 21.7372 11.2778 21.9139 11.7C22.0894 12.1221 22.3287 12.4902 22.6306 12.8068C22.9324 13.1234 23.2908 13.3725 23.7055 13.5554C24.1203 13.7382 24.5596 13.829 25.0235 13.829V13.8278Z" fill="var(--fill-0, #1A1A1A)"/>
<path id="Vector_5" d="M46.2738 5.03906H48.5292L44.8184 15.6855H42.2047L39.4645 8.11668L36.7243 15.6855H34.0676L30.3789 5.03906H32.6135L35.4175 13.0718L38.3061 5.03906H40.6045L43.514 13.0718L46.275 5.03906H46.2738Z" fill="var(--fill-0, #1A1A1A)"/>
<path id="Vector_6" d="M50.8063 0.757812C51.2002 0.757812 51.5401 0.902613 51.8285 1.18976C52.1169 1.47813 52.2604 1.81927 52.2604 2.21195C52.2604 2.60463 52.1156 2.96417 51.8285 3.24518C51.5401 3.52619 51.199 3.66731 50.8063 3.66731C50.3842 3.66731 50.0332 3.52742 49.7522 3.24518C49.4712 2.96417 49.3301 2.61935 49.3301 2.21195C49.3301 1.80455 49.47 1.47813 49.7522 1.18976C50.0332 0.901385 50.3842 0.757812 50.8063 0.757812ZM49.7313 5.038H51.8604V15.6845H49.7313V5.038Z" fill="var(--fill-0, #1A1A1A)"/>
<path id="Vector_7" d="M59.4493 4.74219C60.1242 4.74219 60.7488 4.85876 61.3256 5.08946C61.9023 5.32139 62.4005 5.63798 62.8227 6.03803C63.2448 6.43807 63.5786 6.91296 63.824 7.46148C64.0694 8.01001 64.1934 8.60761 64.1934 9.25308V15.6832H62.0643V10.0335C62.0643 9.51323 61.9944 9.05674 61.8532 8.66283C61.7121 8.26893 61.5121 7.93883 61.252 7.67255C60.9918 7.40626 60.6826 7.20133 60.3242 7.06144C59.9659 6.92155 59.5892 6.85038 59.1965 6.85038C58.6762 6.85038 58.2271 6.93505 57.8467 7.10316C57.4675 7.27251 57.1472 7.50689 56.8871 7.80999C56.6269 8.11186 56.4306 8.46649 56.2968 8.87513C56.1631 9.28253 56.0968 9.73902 56.0968 10.2458V15.6844H53.9678V5.01706H56.0968V6.30308C56.2797 6.0368 56.5005 5.80733 56.7607 5.61835C57.0208 5.42815 57.2982 5.26739 57.5939 5.13364C57.8896 4.99988 58.1952 4.90171 58.5106 4.8379C58.8272 4.77409 59.1389 4.74341 59.4481 4.74341L59.4493 4.74219Z" fill="var(--fill-0, #1A1A1A)"/>
<path id="Vector_8" d="M74.2064 5.01769H76.3146V15.2003C76.3146 15.3549 76.3035 15.6114 76.2826 15.9697C76.2618 16.328 76.1906 16.7318 76.0716 17.1821C75.9525 17.6313 75.766 18.0988 75.5132 18.5835C75.2605 19.0682 74.8985 19.5075 74.4272 19.9014C73.956 20.2953 73.3658 20.6217 72.6565 20.8819C71.946 21.142 71.0723 21.2721 70.0317 21.2721C69.1887 21.2721 68.4045 21.1739 67.6805 20.9764C66.9565 20.7788 66.2927 20.526 65.6877 20.218L66.4461 18.2362C66.9799 18.532 67.5529 18.7602 68.164 18.921C68.7751 19.0829 69.3973 19.1639 70.0292 19.1639C70.6612 19.1639 71.2551 19.1001 71.7681 18.9737C72.281 18.8473 72.7166 18.6363 73.075 18.3418C73.4333 18.046 73.7106 17.6423 73.9082 17.1294C74.1045 16.6164 74.2039 15.9587 74.2039 15.1586V14.2947C73.7266 14.815 73.1633 15.2187 72.5178 15.5071C71.8712 15.7955 71.1754 15.9391 70.4305 15.9391C69.6857 15.9391 68.9616 15.7918 68.3015 15.4961C67.6413 15.2003 67.0608 14.8003 66.5626 14.2947C66.0632 13.7891 65.6705 13.1989 65.3821 12.524C65.0938 11.8491 64.9502 11.1251 64.9502 10.352C64.9502 9.57889 65.0938 8.85244 65.3821 8.17016C65.6705 7.48911 66.0632 6.89518 66.5626 6.38838C67.0608 5.88281 67.6413 5.48154 68.3015 5.18703C68.9616 4.8913 69.6722 4.74404 70.4305 4.74404C71.1889 4.74404 71.8712 4.88884 72.5178 5.17599C73.1645 5.46436 73.7266 5.86808 74.2039 6.38838V5.01769H74.2064ZM70.433 13.8296C70.8968 13.8296 71.3288 13.7388 71.73 13.556C72.1301 13.3731 72.481 13.124 72.7841 12.8074C73.086 12.4908 73.3253 12.1227 73.5008 11.7006C73.6762 11.2785 73.7646 10.8293 73.7646 10.3508C73.7646 9.87217 73.6762 9.40219 73.5008 8.98006C73.3253 8.55793 73.086 8.18979 72.7841 7.8732C72.4823 7.5566 72.1301 7.3075 71.73 7.12466C71.33 6.94181 70.8968 6.85101 70.433 6.85101C69.9691 6.85101 69.5335 6.94304 69.1261 7.12466C68.7187 7.3075 68.3604 7.5566 68.0511 7.8732C67.7419 8.18979 67.4989 8.55793 67.3234 8.98006C67.148 9.40219 67.0596 9.85868 67.0596 10.3508C67.0596 10.8428 67.1467 11.2785 67.3234 11.7006C67.4989 12.1227 67.7419 12.4908 68.0511 12.8074C68.3604 13.124 68.7187 13.3731 69.1261 13.556C69.5335 13.7388 69.9691 13.8296 70.433 13.8296Z" fill="var(--fill-0, #1A1A1A)"/>
</g>
<defs>
<clipPath id="clip0_0_56">
<rect width="76.3146" height="21.2709" fill="white"/>
</clipPath>
</defs>
</svg>
