<svg preserveAspectRatio="none" width="100%" height="100%" overflow="visible" style="display: block;" viewBox="0 0 25.375 25.3736" fill="none" xmlns="http://www.w3.org/2000/svg">
<g id="Group">
<path id="Vector" d="M0 0V25.0788H1.97729C1.8414 17.7396 3.65383 11.5331 7.65336 11.2161C11.4161 10.9179 15.9422 17.7248 15.9422 17.7248C15.3877 16.8597 15.036 15.7123 14.7003 14.7386C14.3036 13.5911 13.9809 12.41 13.7821 11.2043C13.4134 8.97645 13.4314 6.46621 14.6813 4.52575C15.2917 3.57676 16.2089 2.82131 17.1961 2.34336C17.8725 2.01649 18.6398 1.85257 19.3702 2.01156C20.0037 2.14882 20.5752 2.5221 21.0358 2.99808C23.089 5.12122 23.3538 8.98238 23.3538 11.8205V25.0778H25.375V0H0Z" fill="var(--fill-0, #0C120C)"/>
<path id="Vector_2" d="M25.374 23.7936H0V25.3736H25.374V23.7936Z" fill="var(--fill-0, #0C120C)"/>
</g>
</svg>
