<svg preserveAspectRatio="none" width="100%" height="100%" overflow="visible" style="display: block;" viewBox="0 0 59.9387 16.5391" fill="none" xmlns="http://www.w3.org/2000/svg">
<g id="Layer_1" clip-path="url(#clip0_0_8)">
<path id="Vector" d="M7.36967 11.0825C6.97258 11.487 6.51092 11.8067 5.98758 12.0414C5.46327 12.2761 4.9033 12.3935 4.30671 12.3935C3.71012 12.3935 3.15015 12.279 2.62584 12.049C2.10154 11.8191 1.64566 11.508 1.26014 11.1149C0.873656 10.7218 0.567167 10.26 0.341638 9.72949C0.115145 9.19994 0.00238037 8.63413 0.00238037 8.03302C0.00238037 7.43191 0.115145 6.86896 0.341638 6.34418C0.568131 5.8194 0.873656 5.36046 1.26014 4.96735C1.64662 4.57425 2.10154 4.26224 2.62584 4.03325C3.15015 3.8033 3.71012 3.6888 4.30671 3.6888C4.9033 3.6888 5.46327 3.80616 5.98758 4.04088C6.51189 4.2756 6.97258 4.59524 7.36967 4.9998L6.19383 6.16385C5.96156 5.90146 5.68302 5.69632 5.35725 5.54938C5.03149 5.40149 4.68067 5.32802 4.30575 5.32802C3.93083 5.32802 3.59928 5.39958 3.2793 5.54079C2.95932 5.68296 2.68078 5.87665 2.44272 6.12282C2.20563 6.36899 2.01769 6.65523 1.87986 6.98346C1.74204 7.31169 1.67265 7.6609 1.67265 8.03302C1.67265 8.40513 1.74108 8.77057 1.87986 9.0988C2.01769 9.42702 2.20563 9.71326 2.44272 9.95943C2.67982 10.2056 2.95835 10.3993 3.2793 10.5415C3.59928 10.6836 3.94143 10.7542 4.30575 10.7542C4.67006 10.7542 5.03149 10.6808 5.35725 10.5329C5.68302 10.385 5.96156 10.1808 6.19383 9.91841L7.36967 11.0825Z" fill="var(--fill-0, #0C120C)"/>
<path id="Vector_2" d="M8.29551 8.13802e-05H9.9677V12.1959H8.29551V8.13802e-05Z" fill="var(--fill-0, #0C120C)"/>
<path id="Vector_3" d="M12.5183 0.590088C12.8277 0.590088 13.0946 0.702677 13.3211 0.925946C13.5476 1.15017 13.6604 1.41542 13.6604 1.72075C13.6604 2.02607 13.5467 2.30564 13.3211 2.52414C13.0946 2.74264 12.8267 2.85236 12.5183 2.85236C12.1867 2.85236 11.9111 2.74359 11.6904 2.52414C11.4697 2.30564 11.3588 2.03752 11.3588 1.72075C11.3588 1.40397 11.4687 1.15017 11.6904 0.925946C11.9111 0.701723 12.1867 0.590088 12.5183 0.590088ZM11.674 3.91814H13.3462V12.1963H11.674V3.91814Z" fill="var(--fill-0, #0C120C)"/>
<path id="Vector_4" d="M19.6532 3.6888C20.2382 3.6888 20.7933 3.8033 21.3176 4.03325C21.8419 4.2632 22.2969 4.57425 22.6833 4.96735C23.0698 5.36046 23.3763 5.82227 23.6018 6.35277C23.8283 6.88327 23.9411 7.44813 23.9411 8.04924C23.9411 8.65035 23.8274 9.21329 23.6018 9.73807C23.3753 10.2629 23.0689 10.7218 22.6833 11.1149C22.2969 11.508 21.841 11.82 21.3176 12.049C20.7933 12.279 20.2382 12.3935 19.6532 12.3935C19.0681 12.3935 18.5274 12.2837 18.0301 12.0652C17.5338 11.8467 17.1029 11.5519 16.7386 11.1798V16.0974H15.0664V3.88631H16.7386V4.90247C17.1029 4.53131 17.5338 4.23648 18.0301 4.01703C18.5265 3.79853 19.0672 3.6888 19.6532 3.6888ZM19.6532 10.7533C20.0059 10.7533 20.3432 10.6827 20.6632 10.5405C20.9832 10.3983 21.2617 10.2046 21.4998 9.95848C21.7369 9.71231 21.9248 9.42607 22.0627 9.09784C22.2005 8.76962 22.2699 8.4204 22.2699 8.04828C22.2699 7.67617 22.2005 7.31359 22.0627 6.99109C21.9248 6.66859 21.7398 6.38235 21.5075 6.13046C21.2752 5.87952 20.9996 5.68296 20.6796 5.54079C20.3596 5.39863 20.0175 5.32802 19.6532 5.32802C19.2888 5.32802 18.9438 5.39958 18.618 5.54079C18.2923 5.68296 18.0108 5.87665 17.7737 6.12282C17.5366 6.36899 17.3487 6.65523 17.2109 6.98346C17.0731 7.31168 17.0037 7.66663 17.0037 8.04924C17.0037 8.43185 17.0721 8.77057 17.2109 9.0988C17.3487 9.42702 17.5366 9.71326 17.7737 9.95943C18.0108 10.2056 18.2923 10.3993 18.618 10.5415C18.9438 10.6836 19.2888 10.7542 19.6532 10.7542V10.7533Z" fill="var(--fill-0, #0C120C)"/>
<path id="Vector_5" d="M36.344 3.91772H38.1155L35.2009 12.1959H33.148L30.9959 6.31072L28.8437 12.1959H26.7571L23.8599 3.91772H25.615L27.8172 10.1635L30.086 3.91772H31.8912L34.1764 10.1635L36.345 3.91772H36.344Z" fill="var(--fill-0, #0C120C)"/>
<path id="Vector_6" d="M39.904 0.590088C40.2134 0.590088 40.4804 0.702677 40.7069 0.925946C40.9334 1.15017 41.0461 1.41542 41.0461 1.72075C41.0461 2.02607 40.9324 2.30564 40.7069 2.52414C40.4804 2.74264 40.2124 2.85236 39.904 2.85236C39.5725 2.85236 39.2968 2.74359 39.0761 2.52414C38.8554 2.30564 38.7446 2.03752 38.7446 1.72075C38.7446 1.40397 38.8544 1.15017 39.0761 0.925946C39.2968 0.701723 39.5725 0.590088 39.904 0.590088ZM39.0597 3.91814H40.7319V12.1963H39.0597V3.91814Z" fill="var(--fill-0, #0C120C)"/>
<path id="Vector_7" d="M46.6937 3.6888C47.2238 3.6888 47.7144 3.77945 48.1674 3.95882C48.6204 4.13916 49.0117 4.38533 49.3432 4.69638C49.6748 5.00743 49.9369 5.37668 50.1297 5.80318C50.3224 6.22969 50.4198 6.69435 50.4198 7.19623V12.1959H48.7476V7.80307C48.7476 7.39851 48.6927 7.04357 48.5818 6.73729C48.471 6.43101 48.3139 6.17435 48.1096 5.9673C47.9052 5.76025 47.6624 5.60091 47.3809 5.49213C47.0995 5.38336 46.8036 5.32802 46.4952 5.32802C46.0865 5.32802 45.7338 5.39386 45.435 5.52457C45.1372 5.65625 44.8857 5.83849 44.6813 6.07416C44.477 6.30888 44.3228 6.58463 44.2177 6.90236C44.1127 7.21913 44.0606 7.57407 44.0606 7.96814V12.1969H42.3884V3.90253H44.0606V4.90247C44.2042 4.69542 44.3777 4.517 44.5821 4.37006C44.7864 4.22217 45.0042 4.09718 45.2365 3.99317C45.4688 3.88917 45.7087 3.81284 45.9564 3.76323C46.2051 3.71361 46.4499 3.68976 46.6928 3.68976L46.6937 3.6888Z" fill="var(--fill-0, #0C120C)"/>
<path id="Vector_8" d="M58.2843 3.90158H59.9402V11.8191C59.9402 11.9393 59.9315 12.1387 59.9151 12.4173C59.8987 12.6959 59.8428 13.0098 59.7493 13.36C59.6558 13.7092 59.5093 14.0727 59.3108 14.4496C59.1122 14.8265 58.8279 15.1681 58.4578 15.4744C58.0877 15.7807 57.6241 16.0345 57.0671 16.2367C56.509 16.439 55.8228 16.5402 55.0055 16.5402C54.3434 16.5402 53.7275 16.4638 53.1589 16.3102C52.5902 16.1566 52.0688 15.96 51.5936 15.7206L52.1893 14.1796C52.6085 14.4096 53.0586 14.587 53.5386 14.712C54.0186 14.838 54.5072 14.9009 55.0036 14.9009C55.4999 14.9009 55.9664 14.8513 56.3693 14.7531C56.7721 14.6548 57.1143 14.4907 57.3957 14.2617C57.6771 14.0317 57.895 13.7178 58.0501 13.319C58.2043 12.9201 58.2824 12.4087 58.2824 11.7866V11.1149C57.9075 11.5195 57.4651 11.8334 56.9582 12.0576C56.4502 12.2818 55.9038 12.3935 55.3187 12.3935C54.7337 12.3935 54.1651 12.279 53.6465 12.049C53.128 11.8191 52.6721 11.508 52.2808 11.1149C51.8886 10.7218 51.5801 10.2629 51.3537 9.73807C51.1272 9.21329 51.0144 8.65035 51.0144 8.04924C51.0144 7.44813 51.1272 6.88328 51.3537 6.35277C51.5801 5.82322 51.8886 5.36142 52.2808 4.96735C52.6721 4.57425 53.128 4.26224 53.6465 4.03325C54.1651 3.8033 54.7231 3.6888 55.3187 3.6888C55.9144 3.6888 56.4502 3.80139 56.9582 4.02466C57.4661 4.24888 57.9075 4.5628 58.2824 4.96735V3.90158H58.2843ZM55.3207 10.7533C55.685 10.7533 56.0242 10.6827 56.3394 10.5405C56.6536 10.3983 56.9292 10.2046 57.1673 9.95848C57.4044 9.71231 57.5923 9.42607 57.7302 9.09784C57.868 8.76962 57.9374 8.4204 57.9374 8.04828C57.9374 7.67617 57.868 7.31073 57.7302 6.98251C57.5923 6.65428 57.4044 6.36804 57.1673 6.12187C56.9302 5.8757 56.6536 5.68201 56.3394 5.53984C56.0252 5.39767 55.685 5.32707 55.3207 5.32707C54.9563 5.32707 54.6142 5.39863 54.2942 5.53984C53.9742 5.68201 53.6928 5.8757 53.4499 6.12187C53.207 6.36804 53.0162 6.65428 52.8784 6.98251C52.7406 7.31073 52.6712 7.66567 52.6712 8.04828C52.6712 8.4309 52.7396 8.76962 52.8784 9.09784C53.0162 9.42607 53.207 9.71231 53.4499 9.95848C53.6928 10.2046 53.9742 10.3983 54.2942 10.5405C54.6142 10.6827 54.9563 10.7533 55.3207 10.7533Z" fill="var(--fill-0, #0C120C)"/>
</g>
<defs>
<clipPath id="clip0_0_8">
<rect width="59.9387" height="16.5391" fill="white"/>
</clipPath>
</defs>
</svg>
